# xmcd
#
# Track frame offsets: 
#        150
#        15802
#        31952
#        50302
#        67028
#        80487
#        100226
#        116825
#        134538
#        150474
#        166451
#        184692
#
# Disc length: 2697 seconds
#
# Revision: 1
# Processed by: cddbd v1.5.2PL0 Copyright (c) Steve Scherf et al.
# Submitted via: ExactAudioCopy v1.0b1
#
DISCID=940a870c
DTITLE=Chuck Wicks - Starting Now
DYEAR=2009
DGENRE=Country
TTITLE0=All I Ever Wanted
TTITLE1=Good Time Comin' On
TTITLE2=Stealing Cinderella
TTITLE3=If We Loved
TTITLE4=When You're Single
TTITLE5=Starting Now
TTITLE6=The Easy Part
TTITLE7=What If You Stay
TTITLE8=She's Gonna Hurt Somebody
TTITLE9=Mine All Mine
TTITLE10=Man Of The House
TTITLE11=Better On The Floor
EXTD=
EXTT0=
EXTT1=
EXTT2=
EXTT3=
EXTT4=
EXTT5=
EXTT6=
EXTT7=
EXTT8=
EXTT9=
EXTT10=
EXTT11=
PLAYORDER=
